/* XPM */
static char *result[] = {
/* columns rows colors chars-per-pixel */
"64 64 90 1 ",
"  c #000102",
". c #161313",
"X c #191616",
"o c #262222",
"O c #2A2525",
"+ c #2D2828",
"@ c #312D2D",
"# c #343030",
"$ c #3A3636",
"% c #4A3317",
"& c #4F3A10",
"* c #4F3519",
"= c #523C10",
"- c #503619",
"; c #54381A",
": c #5B3C1C",
"> c #623F1B",
", c #493E2C",
"< c #433D3D",
"1 c #64431C",
"2 c #6A451E",
"3 c #50422B",
"4 c #7D5621",
"5 c #7F4334",
"6 c #60533D",
"7 c #474141",
"8 c #4D4545",
"9 c #514A4A",
"0 c #585252",
"q c #645B55",
"w c #77674E",
"e c #736550",
"r c #7D7171",
"t c #815923",
"y c #804334",
"u c #8B6123",
"i c #976927",
"p c #9B6D26",
"a c #946728",
"s c #936828",
"d c #96742E",
"f c #816937",
"g c #A27224",
"h c #A97727",
"j c #AD7A25",
"k c #AA7728",
"l c #AD7A28",
"z c #B27E25",
"x c #B57F2A",
"c c #BA6042",
"v c #807575",
"b c #837878",
"n c #C66344",
"m c #C96644",
"M c #A7812B",
"N c #AA822A",
"B c #B48026",
"V c #BB8A26",
"C c #B6812A",
"Z c #B98328",
"A c #B58829",
"S c #BE8E2B",
"D c #CC951E",
"F c #D79D1B",
"G c #D5A01B",
"H c #DCA21F",
"J c #FDBE0F",
"K c #EAAE16",
"L c #E5AB1E",
"P c #E9AD1B",
"I c #EDB117",
"U c #EFB419",
"Y c #F2B616",
"T c #F6B915",
"R c #FBBD12",
"E c #F1B518",
"W c #C58D27",
"Q c #C48D2A",
"! c #C59121",
"~ c #CE9723",
"^ c #CF9922",
"/ c #C79029",
"( c #CA9229",
") c #D69D27",
"_ c #D89F26",
"` c #D39B29",
"' c #DDA525",
"] c #DBA228",
"[ c #E1A723",
"{ c #E2A922",
/* pixels */
"<<<<<<<<<<<r<<<<<<<<<<<<<<<<<<<<<<<<<<O<<<<<<<<<<<<O88899900000<",
"<000000000000000000000000000000000000<O8<<99990000,O88899900000<",
"<000000000000000000000000000000000000<O888899000007O88899900000<",
"<000000000000000000000000000000000000<o88889900000<O88899900000<",
"<900000000000000000099000000000000000<O88889900000<O88889900000<",
"<999999999999999999999999999999999999<O88889900000<o88889900000<",
"<99999999999999999999999999v999999999<O88889900000<O88889900000<",
"<999999999999999999999999999999999999<o8888990000<<o888v9000000<",
"<8888888888888888888<8888888888888888<O88889900000<O888v9000000<",
"<888888888888888<<<<<8888888888888888<O888<v900000<O88889000000<",
"<888888888888888<<<<<<888888888888888<O889vv900000<O88889000000<",
"<88888888888888<<<<<<<8b<6GGSVZVVV888<O88<v8990000<O8889900q0q0<",
"OOOO++OOOO++++++OOOOO++++,RJ_['[[[OOO@O88889990000<O+O++++O+++++",
"<<<<<<<<<<<<<<<<<<<<<<<MMYJRJRRRRRddd<O88899900000<O<<<<<<<<<<<<",
"00q0900000000900000<<00[{YRRJRRRRR[[L<O88899900000<O<00000000000",
"000<<<000000<<000000wweEERRRRJRRRREEE6,88899900000<O<v0000000000",
"0000<<900000<0000000H]]RRJRRRRRRRRRRR']88899900000<O000000000000",
"98000000000009900000H]_RRRRRRRRRRRRRR']88899900000<O000000000999",
"9999999999998999<9L[RRRRRRRRJRRRRRRRRRR888899{{000<o999999999999",
"999999999999999999[[RRRRRRRRRRJRRRRRRRR988999{{q00<O999999999999",
"999999999999999899{{RRRRRRRRRRRRRJRRRRR988!'{RRT[[<O999999999999",
"88888888888888869q['RRRRRRRRTRTRRRRRRRRf88G{{RRE[[<O888888888888",
"8888888888888mmmmmmm[[[RRRRRnmnRRRRRRRRR['RRRRRRTR<O888888888888",
"8888888888888mmmmmmm{[]RRRRRnmnRRRRRRRRR'{JRRRTRTR<O<88888888888",
"8<88<8889999<mmmmmmmmmn{{URR   RRRRRR```RRRTRRRRRR<O<88888888888",
"++OOOOO++++O+mmmmmmmmmm{{UJR   RRRRRR```RRRRRRRRRROOO+OOOOOOO+++",
"b<<<<<<vvvbvO<vmmmmmmmm)~HPP&=&PLLHHH(QQRRRRRRRRRRvvvvvvvvvvvvvv",
"00b0v0000000O<<mmmmmmmmzzW``_`_``)QQQxxxRTRRRRRRRR@@000000000000",
"000000000000O<8cccmmmmmzBW````)_)`QQWxxZRRRRRRRRRR@@000000000000",
"000000000000O<8889yyyyyyyyyy___`))lllRRRRRRRRRRY``@@00000v000000",
"999990000000O<8889yyyyyyyyyy____))llzRRRRRRRRRJY`)@@000000000999",
"999999999999O<8899((hjjhhjjljjlzzzKYYJRRRRRRRRRPzxO+999999999999",
"999999999999O<8889``jjjjjNllljljllTJRRRRRRRRRRRKjj++999999999<99",
"888888888899O<8889``lhhhhkkkkkkhhhTRJRRRRRRRRRRKBB++999988888888",
"888888888888O$8889jz]_`RRRRRRRRRRJRRRRTRRRJTR))OOO++888888888888",
"888888888888O78<90jh__`RRRRRRRRRRRRRRRRRRRRRJ`)OOOOO88888888$888",
"888888888888O<8O++::'']RRRRRRRRRRRRRRRRRRRTRRjh++OO+888888889888",
"<<<<<<<<<<<<o<8OO+;:]]'JRRRRRJRRRRRRRRRRRRJJRjjooooo<<<<<<<7<<<<",
"ooooOooOOrooo<8OO+::BBBDDH'[RRJRRRRRJ'''DDDDDuu.X...oOOOoO+OOOoO",
"<8889vvvrvvvOo++O+;:issjh/``JRRRRRJRR)__jMjjj::77777rrrrrrrrrrr<",
"<88899900000OO++++::iiizj~``JJJRRRRRR]]_jjzjB:1@@@$$000r00000007",
"<888899000vvO<8OO+++>::ttpljjjjjjjjjj44t44111@+@@@0000000000000<",
"<888890000<<O<8++@++>::ttgjljjjjjjjjjtt444111#@###0000000000000<",
"<888890000<<O<8889+7@@@--112222222221*%%--@@+#@0000000099999000<",
"<888890000<<O<8889@+@@@***;***%,&---******+++++99999999999999r0<",
"<888999000vvO<888999@@@@@X++++O+++++++++++++#999999999999999999<",
"<888999000r<O<888899909@@X+++OOoOo+OOOO+++788999999888888888999<",
"<88899900000O<888899000ooX+o+OOO++OOO++O+O888888888888888888888<",
"<88899900000O<888899000<<+<<88888888888888888888888888888888888<",
"<88899900000O<888899vv<<<O<888888888888888888888888888888888888<",
"<88899900000O<<<<<<<<<<<<+<<<<<<<<<<<<<<<<<<<<<<<<7<$7<<<<<3<<<<",
"<88899900000oOOOOOOooOOOOOOOOOOoOOOoOOoOOOoOOoOOOOOOOOOOOOOooOOO",
"<88899900000O<<<<<<<<0000000000000<<<000rb0000000r<o88890000000<",
"<88899v00000O<00<<00000000000000000<00000000000000<O88889000000<",
"<88899900000o<000000000000000000000r00000000000000<O8r889000000<",
"<88899900000O<000000000000000000000000000000000000<o8r889900000<",
"<88899000000o<9999999999999999999900099999999999r9<O8r889900000<",
"<888rr000000O<999999999999999999999999999999999r99<O88889900000<",
"<88889000000O<999999999999999999999999999999999999<O<8889900000<",
"<88889900000O<988888888888899999999888888988888889<o88889900000<",
"<8888990000$O<39888888888888888888888888888888<<88<o88889900000<",
"<888899000<<O<888888888888888888888888888<<<<<<<88<O88899900000<",
"<888999000<0O<88888888888888888888r88888<<<<<<<888<O88899900000<",
"OOOOOOOoOooOOOOOOOOOOOOoOoOOOOOOOOOOOOOOOOOOOOOOOoOO88899900000<"
};
