/* XPM */
static char *result[] = {
/* columns rows colors chars-per-pixel */
"64 64 63 1 ",
"  c #000102",
". c #4A3317",
"X c #4F3A10",
"o c #4F3519",
"O c #523C10",
"+ c #503619",
"@ c #54381A",
"# c #5B3C1C",
"$ c #623F1B",
"% c #64431C",
"& c #6A451E",
"* c #7D5621",
"= c #7F4334",
"- c #815923",
"; c #804334",
": c #8B6123",
"> c #976927",
", c #9B6D26",
"< c #946728",
"1 c #936828",
"2 c #A27224",
"3 c #A97727",
"4 c #AD7A25",
"5 c #AA7728",
"6 c #AD7A28",
"7 c #B27E25",
"8 c #B57F2A",
"9 c #C76344",
"0 c #C96643",
"q c #CD6B4A",
"w c #B48026",
"e c #B6812A",
"r c #B98328",
"t c #CC951E",
"y c #DDA11E",
"u c #FAB709",
"i c #FCBC0D",
"p c #E4A617",
"a c #EAAE16",
"s c #E2A51C",
"d c #E5AA1E",
"f c #E9AD1B",
"g c #EDB117",
"h c #EFB419",
"j c #F2B516",
"k c #F6B914",
"l c #FBBD12",
"z c #F1B518",
"x c #C58D27",
"c c #C48D2A",
"v c #C79120",
"b c #CE9723",
"n c #CF9922",
"m c #C79029",
"M c #CA9229",
"N c #D69D27",
"B c #D89F26",
"V c #D39B29",
"C c #DDA525",
"Z c #DBA228",
"A c #E1A723",
"S c #E2A922",
"D c None",
/* pixels */
"DDDDDDDDDDDDDDDDDDDDDDDDDDDDDDDDDDDDDDDDDDDDDDDDDDDDDDDDDDDDDDDD",
"DDDDDDDDDDDDDDDDDDDDDDDDDDDDDDDDDDDDDDDDDDDDDDDDDDDDDDDDDDDDDDDD",
"DDDDDDDDDDDDDDDDDDDDDDDDDDDDDDDDDDDDDDDDDDDDDDDDDDDDDDDDDDDDDDDD",
"DDDDDDDDDDDDDDDDDDDDDDDDDDDDDDDDDDDDDDDDDDDDDDDDDDDDDDDDDDDDDDDD",
"DDDDDDDDDDDDDDDDDDDDDDDDDDDDDDDDDDDDDDDDDDDDDDDDDDDDDDDDDDDDDDDD",
"DDDDDDDDDDDDDDDDDDDDDDDDDDDDDDDDDDDDDDDDDDDDDDDDDDDDDDDDDDDDDDDD",
"DDDDDDDDDDDDDDDDDDDDDDDDDDDDDDDDDDDDDDDDDDDDDDDDDDDDDDDDDDDDDDDD",
"DDDDDDDDDDDDDDDDDDDDDDDDDDDDDDDDDDDDDDDDDDDDDDDDDDDDDDDDDDDDDDDD",
"DDDDDDDDDDDDDDDDDDDDDDDDDDDDDDDDDDDDDDDDDDDDDDDDDDDDDDDDDDDDDDDD",
"DDDDDDDDDDDDDDDDDDDDDDDDDDDDDDDDDDDDDDDDDDDDDDDDDDDDDDDDDDDDDDDD",
"DDDDDDDDDDDDDDDDDDDDDDDDDDDDDDDDDDDDDDDDDDDDDDDDDDDDDDDDDDDDDDDD",
"DDDDDDDDDDDDDDDDDDDDDDDDDDuuysByyyDDDDDDDDDDDDDDDDDDDDDDDDDDDDDD",
"DDDDDDDDDDDDDDDDDDDDDDDDDDllAZACACDDDDDDDDDDDDDDDDDDDDDDDDDDDDDD",
"DDDDDDDDDDDDDDDDDDDDDDDsSkliilllllfSSDDDDDDDDDDDDDDDDDDDDDDDDDDD",
"DDDDDDDDDDDDDDDDDDDDDDDSAkllllllllSSdDDDDDDDDDDDDDDDDDDDDDDDDDDD",
"DDDDDDDDDDDDDDDDDDDDDDDzzllllillllzzzDDDDDDDDDDDDDDDDDDDDDDDDDDD",
"DDDDDDDDDDDDDDDDDDDDACZllllllllllllllCCDDDDDDDDDDDDDDDDDDDDDDDDD",
"DDDDDDDDDDDDDDDDDDDDCCBllllllllllllllCCDDDDDDDDDDDDDDDDDDDDDDDDD",
"DDDDDDDDDDDDDDDDDDSSlllllllllllllllllllDDDDDDSSDDDDDDDDDDDDDDDDD",
"DDDDDDDDDDDDDDDDDDSSlllllllllilllllllllDDDDDDSSDDDDDDDDDDDDDDDDD",
"DDDDDDDDDDDDDDDDDDSSlllllllllllllllllllDDDdSSllzSSDDDDDDDDDDDDDD",
"DDDDDDDDDDDDDDDDDDSSllllllllkkkllllllllDDDfSSllzSSDDDDDDDDDDDDDD",
"DDDDDDDDDDDDq0000090ACAllill009lllllllllCCllllllllDDDDDDDDDDDDDD",
"DDDDDDDDDDDDq000009qSAClllll009lllllllllCCllllllllDDDDDDDDDDDDDD",
"DDDDDDDDDDDDD0000000009SShll   llllllVVVllllllllllDDDDDDDDDDDDDD",
"DDDDDDDDDDDDD000000q000SShll   llllllVMVlkllllllllDDDDDDDDDDDDDD",
"DDDDDDDDDDDDDDD00090000NbyffOOXffSCCyMmMllllllllllDDDDDDDDDDDDDD",
"DDDDDDDDDDDDDDD000000007wxVVBNNVBBccce8rllllklllllDDDDDDDDDDDDDD",
"DDDDDDDDDDDDDDD000000007wxVVVVNNNVccc88rllllllllllDDDDDDDDDDDDDD",
"DDDDDDDDDDDDDDDDDD;;;;;;==;;ZVNNNB666lllllllllljVVDDDDDDDDDDDDDD",
"DDDDDDDDDDDDDDDDDD;;;;;;;;;;ZNNNNN466llillllllljVVDDDDDDDDDDDDDD",
"DDDDDDDDDDDDDDDDDDMM34433464447777ggjllllllllllfwwDDDDDDDDDDDDDD",
"DDDDDDDDDDDDDDDDDDVV444454w5444444killllllllllla44DDDDDDDDDDDDDD",
"DDDDDDDDDDDDDDDDDDVN33634555553333kllllllllllllgwwDDDDDDDDDDDDDD",
"DDDDDDDDDDDDDDDDDD44ZNVllllllllllllllllllllllNNDDDDDDDDDDDDDDDDD",
"DDDDDDDDDDDDDDDDDD43ZNNllllllllllllllllllllllNnDDDDDDDDDDDDDDDDD",
"DDDDDDDDDDDDDDDDDD##CCZllllllllllllllllllllll64DDDDDDDDDDDDDDDDD",
"DDDDDDDDDDDDDDDDDD##CCZllllllllllllllllllllll64DDDDDDDDDDDDDDDDD",
"DDDDDDDDDDDDDDDDDD#@wwwttCCClllllllllCCCtvttt::DDDDDDDDDDDDDDDDD",
"DDDDDDDDDDDDDDDDDD##11134MVVlllillillZNN44344##DDDDDDDDDDDDDDDDD",
"DDDDDDDDDDDDDDDDDD##,>>67MNViiillllllZNB4474w$%DDDDDDDDDDDDDDDDD",
"DDDDDDDDDDDDDDDDDDDD$##--,44347444344---**%%%DDDDDDDDDDDDDDDDDDD",
"DDDDDDDDDDDDDDDDDDDD%##--244444447444---**%%%DDDDDDDDDDDDDDDDDDD",
"DDDDDDDDDDDDDDDDDDDDDDD++%&%&&&&&&&&%.o.++DDDDDDDDDDDDDDDDDDDDDD",
"DDDDDDDDDDDDDDDDDDDDDDDoo@@@o@o@X+++ooo+ooDDDDDDDDDDDDDDDDDDDDDD",
"DDDDDDDDDDDDDDDDDDDDDDDDDDDDDDDDDDDDDDDDDDDDDDDDDDDDDDDDDDDDDDDD",
"DDDDDDDDDDDDDDDDDDDDDDDDDDDDDDDDDDDDDDDDDDDDDDDDDDDDDDDDDDDDDDDD",
"DDDDDDDDDDDDDDDDDDDDDDDDDDDDDDDDDDDDDDDDDDDDDDDDDDDDDDDDDDDDDDDD",
"DDDDDDDDDDDDDDDDDDDDDDDDDDDDDDDDDDDDDDDDDDDDDDDDDDDDDDDDDDDDDDDD",
"DDDDDDDDDDDDDDDDDDDDDDDDDDDDDDDDDDDDDDDDDDDDDDDDDDDDDDDDDDDDDDDD",
"DDDDDDDDDDDDDDDDDDDDDDDDDDDDDDDDDDDDDDDDDDDDDDDDDDDDDDDDDDDDDDDD",
"DDDDDDDDDDDDDDDDDDDDDDDDDDDDDDDDDDDDDDDDDDDDDDDDDDDDDDDDDDDDDDDD",
"DDDDDDDDDDDDDDDDDDDDDDDDDDDDDDDDDDDDDDDDDDDDDDDDDDDDDDDDDDDDDDDD",
"DDDDDDDDDDDDDDDDDDDDDDDDDDDDDDDDDDDDDDDDDDDDDDDDDDDDDDDDDDDDDDDD",
"DDDDDDDDDDDDDDDDDDDDDDDDDDDDDDDDDDDDDDDDDDDDDDDDDDDDDDDDDDDDDDDD",
"DDDDDDDDDDDDDDDDDDDDDDDDDDDDDDDDDDDDDDDDDDDDDDDDDDDDDDDDDDDDDDDD",
"DDDDDDDDDDDDDDDDDDDDDDDDDDDDDDDDDDDDDDDDDDDDDDDDDDDDDDDDDDDDDDDD",
"DDDDDDDDDDDDDDDDDDDDDDDDDDDDDDDDDDDDDDDDDDDDDDDDDDDDDDDDDDDDDDDD",
"DDDDDDDDDDDDDDDDDDDDDDDDDDDDDDDDDDDDDDDDDDDDDDDDDDDDDDDDDDDDDDDD",
"DDDDDDDDDDDDDDDDDDDDDDDDDDDDDDDDDDDDDDDDDDDDDDDDDDDDDDDDDDDDDDDD",
"DDDDDDDDDDDDDDDDDDDDDDDDDDDDDDDDDDDDDDDDDDDDDDDDDDDDDDDDDDDDDDDD",
"DDDDDDDDDDDDDDDDDDDDDDDDDDDDDDDDDDDDDDDDDDDDDDDDDDDDDDDDDDDDDDDD",
"DDDDDDDDDDDDDDDDDDDDDDDDDDDDDDDDDDDDDDDDDDDDDDDDDDDDDDDDDDDDDDDD",
"DDDDDDDDDDDDDDDDDDDDDDDDDDDDDDDDDDDDDDDDDDDDDDDDDDDDDDDDDDDDDDDD"
};
