/* XPM */
static char *result[] = {
/* columns rows colors chars-per-pixel */
"64 64 76 1 ",
"  c #161414",
". c #252121",
"X c #2B2525",
"o c #2E2827",
"O c #2C2828",
"+ c #302D2D",
"@ c #4D2712",
"# c #4E2812",
"$ c #522B14",
"% c #532F18",
"& c #5A3117",
"* c #56321A",
"= c #5A351D",
"- c #5E391F",
"; c #603A1F",
": c #5B3720",
"> c #5E3A21",
", c #433D3D",
"< c #623D23",
"1 c #634126",
"2 c #664529",
"3 c #69462A",
"4 c #67482B",
"5 c #6A4A2D",
"6 c #6C4E31",
"7 c #644F3C",
"8 c #704E31",
"9 c #6E5234",
"0 c #66523F",
"q c #6C563E",
"w c #715537",
"e c #765837",
"r c #735738",
"t c #755A3A",
"y c #795E3E",
"u c #7A603F",
"i c #4D4545",
"p c #514A4A",
"a c #585252",
"s c #675240",
"d c #695642",
"f c #6C5A46",
"g c #6D5C48",
"h c #715B44",
"j c #7A5F40",
"k c #715E48",
"l c #7D6241",
"z c #74624C",
"x c #756451",
"c c #786751",
"v c #7B6A54",
"b c #7E6E5A",
"n c #7F705B",
"m c #7F7262",
"M c #7D7171",
"N c #806545",
"B c #836947",
"V c #856B4B",
"C c #886E4D",
"Z c #8A714F",
"A c #876E50",
"S c #886F51",
"D c #8C7354",
"F c #81715C",
"G c #907756",
"H c #907857",
"J c #947C5D",
"K c #847662",
"L c #867966",
"P c #897B67",
"I c #8C7F6C",
"U c #977F61",
"Y c #807575",
"T c #8E806C",
"R c #9A8365",
"E c #938674",
/* pixels */
",,,,,,,,,,,M,,,,,,,,,,,,,,,,,,,,,,,,,,X,,,,,,,,,,,,Xiiipppaaaaa,",
",aaaaaaaaaaaaaaaaaaaaaaaa838388;888888Xi,,ppppaaaa,Xiiipppaaaaa,",
",aaaaaaaaaaaaaaaaaaaa353;ZZZZCC&CCCCCB;&1<1ppaaaaa,Xiiipppaaaaa,",
",aaaaaaaaaaaaaaaaaaaa3333ZZZZCB&CBBCCB&;211ppaaaaa,Xiiipppaaaaa,",
",paaaaaaaaaaaaaaaa833GGJ;ZZZZCB&CCBBBC;&yyy>1aaaaa,Xiiiippaaaaa,",
",ppppppppppppppp<;DGDGGH;URRJJJ;JHRRJG&&yuytu==;aa,Xiiiippaaaaa,",
",pppppppppppppp3N;SRRRRR;eeeeyN;eueuul;&GDDDw;<9-a,Xiiiippaaaaa,",
",ppppppppppppp5CC<UeeCNj;NNlyeN;uuulll1144luD<<w9-,XiiiMpaaaaaa,",
",iiiiiiiiiii33VAJ<eeeSNN;NNyNtl2euelll333Buuu11Z8w=XiiiMpaaaaaai",
",iiiiiiiiiii33VCJ;eeeSNj;uuNytN2uuuluN333Buuu11Zww=Xiiiipaaaaaa,",
",iiiiiiiiiii33VJy<eCANNN3uNyNyl3uelluu33Buuuu21uVw=Xiiiipaaaaaa,",
",iiiiiiiiii1jjSee<eCCNNN<NjyNjl3uullNu33llluu44ujVw:=iippaaaaaa,",
"XXXXXXXXo+o3DDytt3NNNNNN5Nuuljl3llllll83lluuu88ujyC=:OOOOOoo+ooo",
",,,,,,,,,,<jSDtyy3NNNNNN5uNuljN3llllll38luuuu88uyyS66*,,,,,,,,,,",
"aaaaaaaaaa<Stttey3NNuNNN3ujjulN2NNllNN33uuluu89uyyjDD%aaaaaaaaaa",
"aaa,,,aaaa<Cyttte3jNNNNN3jjjuyN3NNllll38uluuu89uuyyDD%aaaaaaaaaa",
"aaaa,,paaa<Arrttt5NNNNNN5jNjjjN3BNNlll55lllll99uyyyDS&aaaaaaaaaa",
"ppaaaaaaaa:jtrewe6NNjN<j5jyyjjN5BBllll55j<llu59uuyyyy$aaaaaaappp",
"pppppppppp==:=;<<<<<<<I<8jjjjjN3BBlNll55<E<<>><-<====$pppppppppp",
"pppppppppp%AFvFFFKKKKPFU<jjjjjN3BBlNll1<EcFKnnvbFFvvv#pppppppppp",
"pppppppppp&hhhkcxvcvAvFvI<3yjjl5BBlll1REcvcczlgzkkrfh#pppppppppp",
"iiiiiiiiii*hhhzkzvccvvAv$yyyjjl3BBlluN%%cccczgzkzkfhh$iiiiiiiiii",
"iiiiiiiiii%hjhkczvvAvbvb%jjjjjl3BBllll$$cvcczzzkkzhfh$iiiiiiiiii",
"iiiiiiiiii&$$$$$%$$%$$v$6jtjjjl4BBllll55&v$%%%#%$$$$#$iiiiiiiiii",
"i,ii,iiipp*<<3<23:5545%69yjyjjl3BBllll554#54455444243$iiiiiiiiii",
"oXooXooooX$hrtjre<jjjj566jjjjjj4BZllll55l4lll99rrrrrr$oOOOOXoooo",
"Y,,,,,,YYY$errtre<jjjjj66jtjhtl4ZCullu55lluul99rrrrrr$YYYYYYYYYY",
"aaYaYaaaaa%eerwte3Nhjyj66yjtjjl2CVulll55ltuut999rrrrr$aaaaaaaaaa",
"aaaaaaaaaa%eweere5jjjjj46yyytyl4VZuNll55lllhy99rrrrrr$aaaaaaaaaa",
"aaaaaaaaaa%wewrrr5ltttj36yyyyyl2ZZuulu85lttly96trrrrw$aaaMaaaaaa",
"pppppaaaaa$wwrrre6jjjtyj6ytjttl2BVuuuu86lltyy699r99rw#aaaaaaappp",
"pppppppppp$errrrr3jttttt6ttttjl2VVuuuu66ltyyy699rrr9w#pppppppppp",
"pppppppppp%wwtrwt4zttttt9tttt=;1;;-uuu69ltutu559rw9r9%ppppppp+ap",
"iiiiiiiiii$wwwwwt4uttttt6ttt;TPPTTT-uu99uutut99w9ww99#ppiiiiiiip",
"iiiiiiiiii#wwwwtw6uttrrr6ttt-xxxzzz;uu66ltutt44999999%iiiiiiiiii",
"iiiiiiiiii%wwtrww6uttrwt6ttt;zzzzzz;uu69utttt449qw999%iiiiii,iii",
"iiiiiiiiii$wrwwww4urrrrr6ttt=uz#zzz=wu66utttt24999999@iiiiiiiiii",
",,,,,,,,,,$wwwwrw6urwwwr4ttt%qg%kgy#tt66uttyt22999999@,,,,,,,,,,",
"..X.XXXOXM#wwwwww6uwwwww6rrt%qqqqqq#rr64utytt42999999#.X...X.X.o",
",iiipMMMMM#wwwwww6uwww>w6trr4##%###4ur66z>ttt22999699@MMYYYYYYM,",
",iiipppaaa#****==>----T>4wttt44*444etr66>T->---=*==%*#aMaaaaaaa,",
",iiiippaaa#=*=*-=-->--T>9ttww44*444trr66<T:---==*=%=*@aaaaaaaaa,",
",iiiipaaaa#ccvbvvKKKnKxT>wwwtrr1utttrt>>Tznnbvvvbvccc#aaaaaaaaa,",
",iiiipaaaa#qqqkkkxzxcccxP>>wwtt1wttwt<TTxxxxkgggkkqqf#apppppaaa,",
",iiiipaaaa#qqqkkkzxxxccc#rrwrwq1wwtwt9@@zzxzggggfhfqq@pppppppMa,",
",iiipppaaa######$#####c#1wrqwww1twwwww11#k##########$@ppppppppp,",
",iiipppaaa@;1<114=4464#41wwwwww1wwwwww116#424<<1<<<<<@iiiiiippp,",
",iiipppaaa#999699=w9ww4w1wwwwww>www99w>1t4ttu;>966666@iiiiiiiii,",
",iiipppaaa#999699*qw994w1www9ww>rrw99911t4ryt1>666666@iiiiiiiii,",
",iiipppaaa#969969>w9q99q199qwww*9w99q711trytt>1666656@iiiiiiiii,",
",iiipppaaa#9999991w0w9w91wwwqwd%w99999>>ttrtt>>656666@,,,,,,,,,,",
",iiipppaaa#*=*==>::>==::%%%%%%@%%%%***:*:*:*:%**%%@@@@XXXX.XXXXX",
",iiipppaaa#xzzzzxxxvvxvvccvxnnm@nLmnbxbvvxxxxxxxxxxxc@ipaaaaaaa,",
",iiippMaaa#FLLLLLLLLLLLITTIIIEE@EEEITTYTmTTmLLMLKKKKK@iiiaaaaaa,",
",iiipppaaa#mLLLLLLLLLLLITIIIIEE@EEETTTTTmmmTKLKKYKKKK@iipaaaaaa,",
",iiipppaaa#00d0000000gddgggdggx@xxggggggkgddddd777777#iippaaaaa,",
",iiippaaaa@00000000ddddggdggggx@xxggggggggddddds77777@iippaaaaa,",
",iiiMMaaaa@00070ddgd0gdgggdgggx@xxgggggggddfdsdd77777@iippaaaaa,",
",iiiipaaaa#00070dddddgdgdgggggx@xxagggggggdddddssd777@iippaaaaa,",
",iiiippaaa##@#####@@@@@@@@@@@@@@@@######@@@@@@@@@@@@@@iippaaaaa,",
",iiiippaaa@@@@@@@@@@@@@@@@@@@@@@########@@@@@@@@@@@@@@iippaaaaa,",
",iiiippaaa.. .XXOOO.O.OO.OOOO.OOXXXX.O.XX.......XX. XXipppaaaaa,",
",iiipppaaa.+ .XXO.O.OO.OOOO.OOXXOX,XXXOO.......XXX. XXipppaaaaa,",
"XXX.XXX.X.                                          XXipppaaaaa,"
};
