/* XPM */
static char *result[] = {
/* columns rows colors chars-per-pixel */
"64 64 65 1 ",
"  c #4D2712",
". c #4E2812",
"X c #522B14",
"o c #532F18",
"O c #5A3117",
"+ c #56321A",
"@ c #5A351D",
"# c #5E391F",
"$ c #603A1F",
"% c #5B3720",
"& c #5E3A21",
"* c #623D23",
"= c #634126",
"- c #664529",
"; c #69462A",
": c #67482B",
"> c #6A4A2D",
", c #6C4E31",
"< c #644F3C",
"1 c #704E31",
"2 c #6E5234",
"3 c #66523F",
"4 c #6C563E",
"5 c #715537",
"6 c #765837",
"7 c #735738",
"8 c #755A3A",
"9 c #795E3E",
"0 c #7A603F",
"q c #675240",
"w c #695642",
"e c #6C5A46",
"r c #6D5C48",
"t c #715B44",
"y c #7A5F40",
"u c #715E48",
"i c #7D6241",
"p c #74624C",
"a c #756451",
"s c #786751",
"d c #7B6A54",
"f c #7E6E5A",
"g c #7F705B",
"h c #7F7262",
"j c #806545",
"k c #836947",
"l c #856B4B",
"z c #886E4D",
"x c #8A714F",
"c c #876E50",
"v c #886F51",
"b c #8C7354",
"n c #81715C",
"m c #907756",
"M c #907857",
"N c #947C5D",
"B c #847662",
"V c #867966",
"C c #897B67",
"Z c #8C7F6C",
"A c #977F61",
"S c #8E806C",
"D c #9A8365",
"F c #938674",
"G c None",
/* pixels */
"GGGGGGGGGGGGGGGGGGGGGGGGGGGGGGGGGGGGGGGGGGGGGGGGGGGGGGGGGGGGGGGG",
"GGGGGGGGGGGGGGGGGGGGGGGGG>;1111*111111GGGGGGGGGGGGGGGGGGGGGGGGGG",
"GGGGGGGGGGGGGGGGGGGGG>>;*xxxxkkOzzzzll$#==*GGGGGGGGGGGGGGGGGGGGG",
"GGGGGGGGGGGGGGGGGGGGG;>;=xxxxzk$zkkzlk#O===GGGGGGGGGGGGGGGGGGGGG",
"GGGGGGGGGGGGGGGGGG1;;mmm$xxxxzkOzkzkll$O999*=GGGGGGGGGGGGGGGGGGG",
"GGGGGGGGGGGGGGGG**bmmbmN$DDDANN$NDNNNm#O99998@@$GGGGGGGGGGGGGGGG",
"GGGGGGGGGGGGGGG;k$vDDDDD$66666k$990990#Obbbm8=*2*GGGGGGGGGGGGGGG",
"GGGGGGGGGGGGGG>zz$A66vij$jji66k$069iii==::i0b#*25#GGGGGGGGGGGGGG",
"GGGGGGGGGGGG;;lzN*666bji$j9jy8j=006j0j;;;k000==x27@GGGGGGGGGGGGG",
"GGGGGGGGGGGG;;lzN$666zji$9j9j9i;066ik0;;;k000=-x57@GGGGGGGGGGGGG",
"GGGGGGGGGGGG;;lN9*7zvjjj;i9jyyi;00jj00;;k0000--0z2%GGGGGGGGGGGGG",
"GGGGGGGGGGG=yyv66*7zzjjj=ijy9ji-66iij0>;00000;>09z2#@GGGGGGGGGGG",
"GGGGGGGGGGG;bb999=jjjjjj;iiiiii;jjiiii;;j0i001>090z@%GGGGGGGGGGG",
"GGGGGGGGGG;yvb888;jjijjj>iii9ij;iii0ii1;i00001,0y9c,,+GGGGGGGGGG",
"GGGGGGGGGG*v86869;jjjjjj;99ii0j-iiijii11i0i00120099bboGGGGGGGGGG",
"GGGGGGGGGG*c88986;j9jjjj;ii909j;kkiiij;;0i000120999bb+GGGGGGGGGG",
"GGGGGGGGGG=c88888>jjjjjj;9iyyij-kkj0ij>>ii0i0220009bv+GGGGGGGGGG",
"GGGGGGGGGG#888886>jjjy*y1yyyy9j>kk0jij>>9*i00,2099999XGGGGGGGGGG",
"GGGGGGGGGG@#@##*******F;1yyyyyj;kkiiii>>*F=*&*$#%#@@#XGGGGGGGGGG",
"GGGGGGGGGGOdddnnnBnBBBcZ*yyyyyj;kkiiii*=FdBnffffngdddXGGGGGGGGGG",
"GGGGGGGGGG+t9tppudddcddnC-*yyyi;kki0i=DFssssppttuuttt.GGGGGGGGGG",
"GGGGGGGGGG+tttppsdddsdddXyyyyyi:kkiiiioXddsstpppupwt8XGGGGGGGGGG",
"GGGGGGGGGGOtttpppdddddndXy9yyyi,kkjiiiXOddsspppppuetwXGGGGGGGGGG",
"GGGGGGGGGGOXXXXXXXXXoXcX,9y9yyi;kkiiii>>XdXXXXXXXXXXXXGGGGGGGGGG",
"GGGGGGGGGG+-===-;$>>>>X,1y9y9yy;kkiiii>>:o>:>>:::::::XGGGGGGGGGG",
"GGGGGGGGGGo868876*yyi9>5,9y99ty;kxiiii>>0:00022788777XGGGGGGGGGG",
"GGGGGGGGGGo577878=yy0iy,,9y9yyy:xliiii>>iei902,777777.GGGGGGGGGG",
"GGGGGGGGGGX877768;yy99t>,999yyi-lliiii>>ii89022777777XGGGGGGGGGG",
"GGGGGGGGGGX887768;iyt99>,99989i:xkj0ii>>i09i022777777.GGGGGGGGGG",
"GGGGGGGGGGX877777>i6699>,99989i:kx0i0i>>i9098,2777747XGGGGGGGGGG",
"GGGGGGGGGGX777777>i99999,99988i-xkii001,i908022272727XGGGGGGGGGG",
"GGGGGGGGGGX777777:y86988,8888yy-ll0000,,i0808,2277722XGGGGGGGGGG",
"GGGGGGGGGGX577754:i80770,8080@&$**#000,2i8080,,425524XGGGGGGGGGG",
"GGGGGGGGGGX777557:i87676,878@SSSSSS#002,i9890:,552252XGGGGGGGGGG",
"GGGGGGGGGGX557575,i88777,888@pppppp#00,2i8808::225222XGGGGGGGGGG",
"GGGGGGGGGGX575755,088877,870$ppsppp#00,2i8988::222522XGGGGGGGGGG",
"GGGGGGGGGGX757575,055777>888%up.ppp#60>,08884::222222 GGGGGGGGGG",
"GGGGGGGGGGX455755,055777,888o4u.tp4X50,,i8888--222224 GGGGGGGGGG",
"GGGGGGGGGG.555555:057755>778X444444.55>,08008--222,22.GGGGGGGGGG",
"GGGGGGGGGG 555585,i527$52487:XXX...:70:,0&648--222222 GGGGGGGGGG",
"GGGGGGGGGG.++++@@&##&&S&,5787,:+>>:6782,&S&&###@#++++.GGGGGGGGGG",
"GGGGGGGGGG.@+@+#@##*#&S&,7775::+:::677,,&S###$#@+@+@+.GGGGGGGGGG",
"GGGGGGGGGG.sssfdfnBnnBsC%577777=006678&&Spggddfddfsss.GGGGGGGGGG",
"GGGGGGGGGG.4t4turaaassssS&&7777-58778&SSaapptrrrru44w.GGGGGGGGGG",
"GGGGGGGGGG.ew4uupppspsss.775774=557775 .appprrrrtew44.GGGGGGGGGG",
"GGGGGGGGGG.......X....s.=575577=547755==.u. .....X X..GGGGGGGGGG",
"GGGGGGGGGG.$=*===#:>:>.:=555555=502255*=,.:::&&=***** GGGGGGGGGG",
"GGGGGGGGGG.2,2,22@2472:7*555555#552225*=8:880$=2,,,,,.GGGGGGGGGG",
"GGGGGGGGGG.22>5>2@2455:4&555555#755224&=8:989=*,,,,,, GGGGGGGGGG",
"GGGGGGGGGG 2,5,52=222225=455425+552223==88788&&,,,>,, GGGGGGGGGG",
"GGGGGGGGGG.2225,2&242425&552543o222422%&88888&&<,,,>, GGGGGGGGGG",
"GGGGGGGGGG.o@+@&%&&%%%@@+++ooo oooo+++%%%%@+%+oooo  ..GGGGGGGGGG",
"GGGGGGGGGG.pppppaassaaddddaafhh hhhgddadaaaaaaaaaaaaa GGGGGGGGGG",
"GGGGGGGGGG.BVVVVVVVVVShSSSZZSFF FFFSZZZZVVVVVVhVVhBVB GGGGGGGGGG",
"GGGGGGGGGG hVVVVVVVVVVhSSSSSZFF FFFSZZZZVVVVVVBVVBBBV GGGGGGGGGG",
"GGGGGGGGGG qqqqqqqqqqrwreewrrra aarrrrrrerrwwww<qq<<< GGGGGGGGGG",
"GGGGGGGGGG.33q3qqqqqewewrwerrra.aarrrrrrreewwww<<<<<<.GGGGGGGGGG",
"GGGGGGGGGG 3<<33wwqewwwrrrwerra.aarrrrrrrwwwwwww3<<<<.GGGGGGGGGG",
"GGGGGGGGGG.<<<<wwwwwwrwrwrrrrrs.aarrrrrrreewwwww33<<< GGGGGGGGGG",
"GGGGGGGGGG. ... ....          ..                ..    GGGGGGGGGG",
"GGGGGGGGGG  ............ ........... ....       .   . GGGGGGGGGG",
"GGGGGGGGGGGGGGGGGGGGGGGGGGGGGGGGGGGGGGGGGGGGGGGGGGGGGGGGGGGGGGGG",
"GGGGGGGGGGGGGGGGGGGGGGGGGGGGGGGGGGGGGGGGGGGGGGGGGGGGGGGGGGGGGGGG",
"GGGGGGGGGGGGGGGGGGGGGGGGGGGGGGGGGGGGGGGGGGGGGGGGGGGGGGGGGGGGGGGG"
};
