/* XPM */
static char *result[] = {
/* columns rows colors chars-per-pixel */
"64 64 72 1 ",
"  c #2A0C2D8A1C7E",
". c #2A4C2DD21CB2",
"X c #2B562EAA1D42",
"o c #2B642EBC1D4E",
"O c #2D322DA01BC8",
"+ c #2D782DE01BF5",
"@ c #2E042E6A1C56",
"# c #2F182F7B1D16",
"$ c #2BE62F801DE8",
"% c #2FC02D9A1B08",
"& c #2F6B2FC91D4E",
"* c #2CD7303C1E67",
"= c #2D7A30F41EF3",
"- c #2DE531601F40",
"; c #2E5931CF1F91",
": c #2FCB30231D8C",
"> c #336630F91D61",
", c #3016306E1DC4",
"< c #312731651E6B",
"1 c #31DF31F81ECD",
"2 c #32F832F81F81",
"3 c #33DF31691DAD",
"4 c #348B32091E1E",
"5 c #34FA326C1E62",
"6 c #2E7331ED1FA7",
"7 c #2EEC32641FFC",
"8 c #2F7232F7206A",
"9 c #2FB5333C209E",
"0 c #3004338020CA",
"q c #339733931FF2",
"w c #304133C92101",
"e c #30F134782181",
"r c #311034A621A6",
"t c #317B350D21EF",
"y c #324035972246",
"u c #324235D72284",
"i c #32B83610229C",
"p c #3284362B22C5",
"a c #331F367C22F0",
"s c #338136DF2339",
"d c #341A3412204A",
"f c #34A4349820AC",
"g c #34BB34AD20BC",
"h c #35743562213B",
"j c #3723346E1FC6",
"k c #35E935D2218C",
"l c #33E237442385",
"z c #3646362D21CD",
"x c #36C136A52222",
"c c #372537062268",
"v c #3787376522AC",
"b c #341B377F23B2",
"n c #37C837A422DA",
"m c #347D37E523FC",
"M c #3501386D2461",
"N c #355238C224A0",
"B c #358238F224C5",
"V c #361139852532",
"C c #367339EB257E",
"Z c #36AC3A2725AB",
"A c #36FA3A7625E6",
"S c #377D3B00264B",
"D c #3876384E2353",
"F c #390138D723B7",
"G c #37D63B5B2690",
"H c #38143B9B26BF",
"J c #38513BD926EE",
"K c #38EF3C7D2767",
"L c #39373CC5279F",
"P c #39743D0627CE",
"I c #39EE3D86282D",
"U c #3A3E3DD82868",
/* pixels */
"ZAASSGJVVybVVCVMddmCbVVJJJVbCCCV=&0abs0*=asVJJVVVJbmmddbVVBVsAZk",
"DANSSSnnbVb*6wMAmZCCCCJJVVVb7wwy66bVsBVybsaHKCJCJZCmb;bVddSAaMzD",
"AMAASxnhJbbJVVBMZZCKKCCCCVJCm7mbyMMNsBVyVmmNSVAZCmm760Nz2hmZJMMD",
"er8NNAKJbbbbVVVumZmCKCKCCbbbZNVbiN#t9qhVmmmiCKCKKJJCwwVz2qSVAPZZ",
"JLAMNNMVVu6bbVybbZKCKZZmCJHlMJVyy;<-0qkmCmKkmmCCCCJJCCZa2;rGxFzK",
"yeAANNBJu:h1ybybbVVJAAPAVlgMVJJVy*00u7mZzMZzzZCmmmJmdfxNN6euZxkG",
"aKMAABSVb1q***yVVbVVJGISV2qqVVJbbbV8ZMMMzDMzZZiimCVJCBZSVbMNHZPw",
"AKMMNSGVbyyybbbbbbVJVVqqbqbbVJJVybyVMNSSxFALAZCmCVJJCMMAHVmABhCA",
"KZHANljbbbbbybybbbJJVhqbyVbVbbVbbbbbbGCVVSSPAKmmVVGSVVaMNVmMxhnK",
"ZMCZa43hywwybbbw66bJJbVVVVbVVVVVJybbVVJAZHIPPZCJVSMVM7MVBbMMBzJZ",
"JJZpe23qb0yywyyV6qqVVbJJJbVVVJVVJVVJJJJJJJIPAZmVsCbBbwMNSlwHmJJJ",
"VVCSpABbbwe0yybbq1VJbyVVVVVVVVbVJJbJVJJVJJ6VMZVVNMmVbCZVSl;bGVUH",
"SGVHHVVVbytyiaybVVbbVbbVVVVVbVVVVVVVJJVVVuwVbbbbmVBVbCSBBlBBIBSS",
"PPPAAMbVby0iMtybbVbVVhqVbbbVVVVVbVbVVJVVVu6hbbbVVSBVddmANSsBSSPP",
"MKZZVBybyyymyiMbbbVbbqhqbbbbVVVbyVbbbJJVnqqqbbVVJMV1,dzMMNASSAMA",
"CVVMMbbyb@O#mbbbbVybbbqqyybVbybwwwbyJJnhqq%>bbVVVBCwemMZMAAAPAMm",
"sNABbVbVVyy6VbJVVVbbbbbVywybVVb7wqb*6uJVb1,nVbVbVVNZZMMMKAAMAAib",
"AAMVbVVbVbybyVVbbVbbbbVbybbVVyybyhbb6JJVVbq1yybbbVVMmZAAZALAPMmB",
"mCVVbVbbbbbbJbJVbbbbhVVbyyyVVVbbbVVVbJJJbVbyybV11VuVliNlBZLIGSCZ",
"NJVhbbJVbbyhhVVJJJnhhV*ybwVVbJVbbVbVbJJywbbbyyVq:wwVblJNVLHKLKiM",
"VVVnhbVbbbhqnhJVVJJbVV6bVybVVVVbVJVVJVJbbVVVbbVVbubV6JJKAASGGCGJ",
"JVVVVbbbVbbVVhbVbbJbbVVVVbbJuuVJVJJyJVJJhhVbVVVbqqwwwVJJJVJJVVbJ",
"n1bVVbbbVJVVVVbwwbJJbybVbVJVVJJJVJJVhJJJhhVbbJbqhbyVhhJJVJVVbJVV",
"hqbbbVVhhhnVVVbV6JVJw6ybby*VbVJbJVVVnnVJhnhbbwbbVVVJJnJJJJJJVJu:",
"VbyVb1q1qqwwVVVVJJV-.$ybVb*6wVVVJVVJhJVVVJqJw*6bVbbVbVJVJVJVJw6u",
"V1qVVbVybuuubVJVVVbJJuVVJVVwbVVVJVVJVbVyyVVVbyJVbbbVVVbbJbVJVbbV",
"VhnnJVbbbVJJJVVbJJJVJJuVJVVVJbJVJJVVbVbbbJVVbbJJuybVVVbVVVbJbVbb",
"hhnVVJbbVbbb6V6JVJVJVVJbbbbbbVJJnnJbVhhqJJVVbVwwwyVVVwwJbVVbbVbb",
"VVJVJVVbbbVbw6uwVVJVVVbbVbVbVVbVnnw6w:@@VJVVVJyyVVVVw66bJbbbbbbV",
"JJVbbVbbbbbbJ66wwJVVVVVbVbVVJVbJJJ6wwV6VVVVVJJ*Xwybbb6wwJbVbbbVV",
"VbbbVbbbqq6wVJbVJJVwuVJVVbhJnVVVJVbVVJVVuwVJVw6*bbybbbVVVVbqhqVV",
"bbVbbVbqq66wbbbVVJJVwJVJVhhjnJVbJVbbVJJVuwVuwwV6bbybbVVbVVVhhbVV",
"bVVVbbVqqqVVVbbVJJJVVVbJVVhJVJbbVVJVJJJVJJVJbbw66bbbbbbbbJVVbhnJ",
"VbVbbbVVVbVVVbVVJVwbVVbJVVVJVJJVwwuJJJJJJJVVVVb6*VVVyaMbbVbbbbVV",
"CVMVVwVVbbbbVbVJVuwVhhqVJJnnnVJhVJJnnJVVVJVVyyyyybAiiAmbZVVbbVAZ",
"VGSAwwVVbbbVJVbJVbwbwVbbVJJJVVqhVJJuJVVbJVVVwbbyblmzZmAAAAVbMlCC",
"VBSS7wVVbbVVJwbbbbVJw6VbVJJbVbbbVJuunhbJJbbuu6yylbddzMMSSSHCVVJl",
"lgcMMMwbbb6wuw6bVVbVVhVVJVVbVJVbbbVJnnVJJVbbJubwyy1miMMSSGVMVllV",
"vgcNM=w6bbwwbbubbVbbbhhhhhhbbJJbVubVJbVbVVyVJJJmimMMMMSShVVmbqqH",
"GcSSMMm66wwwwbVbbVVJVJhJnhVbVbVuuwVJJVbbJbbbVJVsMMMSS88#hhJZmqvl",
"GBSaMMMbwJVbbbVbJJJJJJVqhJVbVwwuJwVJJJVVJJVVVVVysN=8SNSBVbmmAHlB",
"GccggNMbbJVbbVJVVwubJJJhnhJJJVJJuwwJJJbbVVVJJVbsBNt8cBBlVJKMNVlG",
"Gc44gNNBJVbbJVJbV66VJVVVVJbVJJJJVwuJJw6VVVVVbJVbNaNcggGVVmZASVBG",
"GBg2sNBmwJVbJVbbbVVVVVVVJJVVJJJVhJVJJwuuVbbVVVbVaMMSgBHVCmAAPHBB",
"BBSs2g&e$VVbVJ6bJJJJJVJJVVbVbJJJ@hJJJVbJJJVVnnVJbCSSBGlVKZMSHBGG",
"BssNss-;wVVVwV61VVVJJVVVVVVVVVJVw:wJJbVJJJbVqqbVbbNGHVlMbmmHBBBB",
"BsNssssMbVwww-::JJJJVVVVVbVbbJbJJwVJJbbJJnnJVbyybJVbbVtNmVlHGBGs",
"BsNNssa76VVuwVhbVJJJuwVVVVJVbVVVVJJJJhnnnnuJJJbJVJJybw06VlHvGBg<",
"Ns8NNNN86bbbbVbbbJJVu6VVVVVVVVVVVJhhuuhJJuuJVJbV*hnVb687VB&<+###",
"Na88890VVbbVVbVVJVVVVVbJVbbVbVVVJJnJ11:VbuVVJVnw6@hhVb-Myt9#88+N",
"SNN880bbbVVVVJJJVVVVVbbbVbVVVJVVJJJbbqVVVVbVyVhq:VJJVVV8t8SSSSaa",
"MS88-VNJVbVbJJVVVVbbqVVbbbVVJVJJVVVbbVVJJVVbbbbbbVVVVVo=tasN8-ar",
"MMAASlyVbbVVVJJVJVVJqqbbbVVJJJJVVVbbbVbVVJJVVVbbmBGVyywtiNaa=8MM",
"AAAmmAMNMbyVbJbJJVJVVVbVVJVVVVwwVbVVVVVbbVJwwVVVVqbmbbbyaSsNNSSA",
"mmCVaiMaMVbVVVVJVw*6VJVVVVVVJwwwVbVVVVVVyVb9;llNmfgdbbbbbsBNNMAM",
"mmBNmiaasbJVJJVJVVblkkmbmVbVVVVVVVVVVVJwwssssMMMC2dMmVVbblBBNMMA",
"Amlbm777MVJVnJJbbNllhqBNlbVJww6bqbybwVJe8mammZAMSSMASbJVbbVB88Mm",
"aSVbdMMKmCbbhqbBS--lhqBNmyVVbwVbqqy66eNlsM2aMaSNSsgcHVJbbbbB8#g1",
"MGqdfNPZVbyVqbBy= 0VVBssaiZZMVVVbbqbVreBBNq2sNSNSG4hDIVbyVbbVqhZ",
"AGmaSVBZbbbVqhMVVllVVllBNNSMNbVbVbhNSw0GHVqlBsBBGhh5VVVbbbbbbbyb",
"VBNCZJJVVbbbhkNVVbVJllBGGScghHHbysl8ASVliAlyBhvBBhVVmVVbbbbbbVby",
"MNBBJVJVwbbbmbmCVVJbbHVVHBvhVVZVbrtwCmMllZVlVqvHHVVVKchbbVbbbJyy",
"JAPSJJJu6VbbbbNCCCVJJVJHHHHVVCAJMMAVBMmSNsMllVVHVVHlf3hVVybVJJbV",
"KASSSJJuwbVbmbNmkkCVJVVJJJJVVCZAi1CsMsBM-MAbbVJJlVHBm>dVVVbJJKVV"
};
