/* XPM */
static char *result[] = {
/* columns rows colors chars-per-pixel */
"64 64 209 2 ",
"   c #211E1E",
".  c #271C33",
"X  c #1B2429",
"o  c #272222",
"O  c #2A2525",
"+  c #2E262E",
"@  c #2C2829",
"#  c #32262F",
"$  c #32292F",
"%  c #2E2631",
"&  c #2E2932",
"*  c #272939",
"=  c #322631",
"-  c #332A32",
";  c #3A2D34",
":  c #372538",
">  c #332C3A",
",  c #3A2D3B",
"<  c #233136",
"1  c #22363B",
"2  c #293538",
"3  c #333135",
"4  c #3B3236",
"5  c #3A333A",
"6  c #373839",
"7  c #3F393B",
"8  c #452A2D",
"9  c #472C2D",
"0  c #4B342D",
"q  c #422C33",
"w  c #492C31",
"e  c #453135",
"r  c #4C333A",
"t  c #433D3D",
"y  c #563231",
"u  c #593839",
"i  c #673B37",
"p  c #733E36",
"a  c #385039",
"s  c #49582F",
"d  c #6C423A",
"f  c #75453E",
"g  c #79463E",
"h  c #7A483E",
"j  c #352D47",
"k  c #3B3644",
"l  c #473F40",
"z  c #723F43",
"x  c #4B4445",
"c  c #4D4545",
"v  c #514A4A",
"b  c #575053",
"n  c #585252",
"m  c #6A4645",
"M  c #754541",
"N  c #774741",
"B  c #7D4C43",
"V  c #725251",
"C  c #736B60",
"Z  c #716B66",
"A  c #7D7171",
"S  c #797278",
"D  c #9E6C17",
"F  c #83493F",
"G  c #877D21",
"H  c #834D43",
"J  c #8A5246",
"K  c #855249",
"L  c #95574B",
"P  c #9D675D",
"I  c #A0685C",
"U  c #B16B5E",
"Y  c #9C6C67",
"T  c #807575",
"R  c #A97775",
"E  c #31884E",
"W  c #1FB14A",
"Q  c #24B84F",
"!  c #25BC57",
"~  c #4B9545",
"^  c #53A54B",
"/  c #6BAE4E",
"(  c #16DC5A",
")  c #27C25C",
"_  c #0DD067",
"`  c #1DD171",
"'  c #2ED579",
"]  c #4ADF51",
"[  c #54DB53",
"{  c #66D955",
"}  c #48E050",
"|  c #50E352",
" . c #78E753",
".. c #5DD761",
"X. c #7ECA6B",
"o. c #9E8F1F",
"O. c #A59917",
"+. c #B6AC15",
"@. c #CC8204",
"#. c #C4BA11",
"$. c #D0C411",
"%. c #FDDD01",
"&. c #EFE506",
"*. c #FDE001",
"=. c #FDEB01",
"-. c #FEF601",
";. c #FEF901",
":. c #D1C629",
">. c #D89C52",
",. c #F79B47",
"<. c #F99D49",
"1. c #FDA64E",
"2. c #FEAC4E",
"3. c #FFB24D",
"4. c #FEA752",
"5. c #FEAB52",
"6. c #FFB556",
"7. c #8FEF4B",
"8. c #8AE858",
"9. c #97EA54",
"0. c #94F353",
"q. c #90E17E",
"w. c #FFCB6C",
"e. c #FECD75",
"r. c #FECE79",
"t. c #FDD27D",
"y. c #38268F",
"u. c #382896",
"i. c #3E29B6",
"p. c #412BBA",
"a. c #4433BF",
"s. c #4539C9",
"d. c #453BD5",
"f. c #463AD8",
"g. c #087BEF",
"h. c #494BD6",
"j. c #4F5EE7",
"k. c #536AEE",
"l. c #536AF0",
"z. c #957C84",
"x. c #00C584",
"c. c #35D984",
"v. c #0BEB8B",
"b. c #00E793",
"n. c #00F496",
"m. c #0AC8BC",
"M. c #07F4AB",
"N. c #04EEBD",
"B. c #01FAB7",
"V. c #61D5AB",
"C. c #7DE4BF",
"Z. c #06A5E6",
"A. c #00B5FD",
"S. c #01B8FB",
"D. c #02CBDD",
"F. c #38DBD9",
"G. c #00EEC3",
"H. c #00E5CB",
"J. c #02F7C5",
"K. c #1EFFCB",
"L. c #22FDC7",
"P. c #02C7E2",
"I. c #00C4F5",
"U. c #7EE5C3",
"Y. c #898D8F",
"T. c #B98385",
"R. c #B78B95",
"E. c #B48A99",
"W. c #BC9098",
"Q. c #A6A9A8",
"!. c #AEB5B2",
"~. c #ABB9B5",
"^. c #C59396",
"/. c #CB9CA7",
"(. c #D2A2A8",
"). c #E0BAB7",
"_. c #94D986",
"`. c #BCC2B6",
"'. c #B9C1BA",
"]. c #FED484",
"[. c #FED789",
"{. c #FED98C",
"}. c #FEDD94",
"|. c #FEDF9B",
" X c #FEE094",
".X c #FEE29C",
"XX c #FCFB9E",
"oX c #FEE5A3",
"OX c #FEE6AD",
"+X c #B1BCD5",
"@X c #A8A4E3",
"#X c #BCCBC9",
"$X c #B5C2D9",
"%X c #8FF1CF",
"&X c #AAF4EB",
"*X c #C4C9CB",
"=X c #D0CFD5",
"-X c #D7D9DC",
";X c #CAEBCA",
":X c #DCE5E5",
">X c #C9F2E5",
",X c #E7E9EA",
"<X c #E5EBEB",
"1X c #EBF0EF",
"2X c #EAEEF2",
"3X c #EEF1F2",
"4X c #EEF4F9",
"5X c #F1F3F4",
"6X c #FDFDFC",
/* pixels */
"t t t t t t t t t t t A t 7 7 7 t 5 t t t t t t t t t t t t t t t t t t t t O t t t t t t t t t t t t O c c c v v v n n n n n t ",
"t n n n n n n n n n n n n - & - = - ; n n n n n n n n n n n n n n n n n n t O x t t v v v : & = + # - O c c c v v v n n n n n t ",
"t n n n n n n n n n n n b : - + = - ; n n n n n n n n n n n n b n n n n n t O c c c c v v - # = + # + O c c c v v v n n n n n t ",
"t n n n n n n n n n n n b -X=X-XF - 5 n n n n n n n n n n n n b n n n n n t O c c c c v v 3 - @ -X*X*XO c c c v v v n n n n n t ",
"t v n n n n n n n n - - (.z.p p y ; ; n v v n n n n n n + + % + % & % & & t O c c c c v v 3 - + ^.H H + # # c v v v n n n n n t ",
"t v v v v v v v v v # - (./.p p - $ ; v v v v v v v v v & $ % O % + & + + t @ c c c c v v 4 # + W.p p # # # c c v v n n n n n t ",
"t v v v v v v v v v = = (.(.^.F ; - q v v v v v v v v A /.E.E.E.E.E.E.E.E.t O c c c c v v 4 - + W.^.T.# # $ c c v v n n n n n t ",
"t v v v v v v v v v # : /./.^.H - : e v v v v v v 5 5 T.R.E.E.E.E.E.E.E.E.# # @ c c c v v 5 - = W.z.T.# # # c A v n n n n n n t ",
"t c c c c c c c c c & $ R R P M ; = ; x t c u c c 5 5 ^./.L L L L L L L L # # + c x c v v k : % W.K K @ - # c A v n n n n n n x ",
"t c c c c c c c c c ; : P K K m # - ; &.-.@.D D e 5 5 L L B f h h M M N M # # # y 0 w :.$.- - % K K K Y R R c c v n n n n n n t ",
"t c c c c c c c c c R R K H H f ; $ - -.-.0 t ; - - ; $ + - $ $ ; # : - ; # $ # 9 0 0 -.=.- - : K K K Y R R c c v n n n n n n t ",
"t c c c c c c c c c R R K H J d = - = -.=.0 4 $ ; - - - $ # $ # # $ - - = # $ - 9 9 9 -.-.> - - K K B Y R R c v v n n n n n n t ",
"@ @ @ O @ O @ O @ @ B B 4 - - G ;.;.;.. % !.!.!.Y.Y.Y.=X*X*X=X,X,X,X<X4X&XB.B.B.L.K.L.j * -.-.;.$.# # M J J @ @ @ @ @ @ $ @ @ @ ",
"t t t t t t t & < h K h 4 - ; G ;.-.;.- : 6X6X3X~.#X#X-X:X:X<X6X6X6X6X6XJ.J.M.B.L.L.L.> > -.;.;.$.@ + M L L = - $ t t t l t t t ",
"n n n n n n n 3 @ f h B 4 $ - o.-.;.XX= : 4X1X1X~.#X#X-X,X:X2X6X6X6X6X6XB.M.B.B.L.L.L.> > -.;.;.#.- # d L J - $ $ n n n n n n n ",
"n n n t 7 7 n @ & m F F ; @ a B -.-.-.= # ~.~.~.#X1X1X1X2X2X5X6X6X6X' ..c.' c.c.' c.c.> > ;.;.;.+.# % d J L # $ $ n n n n n n n ",
"n n n n e 7 n + - z.(.(.% : 3 O.-.;.-.= # '.~.:X:X5X3X1X5X1X>Xn.n.n.`.`.`.`.'.`.`.`.`.> & ;.;.-.+.# # C ).).# - = b n n n n n n ",
"v v n n n n n - = z.(.(.+ ; ; O.;.-.-.= = *X#X:X:X1X<X1X5X5X>Xn.n.n.`.`.`.`.`.`.`.`.`.- > ;.-.;.+.# : C ).).+ + - n n b n v v v ",
"v v v v v v v - % V I I % - ; O.-.-.-.: + #X~.-X-X4X6X%XM.M.N.g.g.g.B.N.N.N.G.G.G.G.G.3 - ;.;.;.O.= # z U U + - - v v v v v v v ",
"v v v v v v v & : V I U - : - O.;.-.-.= = V.V.U.C.%X%XF.P.D.m.l k k H.H.H.G.G.G.J.G.G.- 3 ;.;.;.O.= : m U U & % # v v v v v v v ",
"v v v v v v v & : C R R # ; : O.;.-.-.= = b.b.b.b.b.b.D.S.S.I.i d 0 I.I.I.` v.v.v.v.v., 3 ;.;.;.O.- = V ^.(.# & - v v v v v v v ",
"c c c c c c c & : V R R + - ; O.-.;.-.: : A.A.S.A.A.A.Z.$ - . ;.;.;., , : S.S.I.S.S.S.; & ;.;.;.O.# : m ^.^.+ - + c c c x c c c ",
"c c c c c c c + & l H h - ; ; O.;.;.-.: : S.A.A.S.S.S.Z.$ # . ;.;.;., , : S.S.S.S.S.S.- 3 ;.;.;.O.- # m F F $ - - x c c c c c c ",
"c c c c c c x - & i H H - - ; O.-.;.;.-.-.s 1 < 1 1 1 1 ;.;.;.;.;.;.;.-.;.< < < < < < ;.;.;.;.;.O.w y I F L # # - c c c c c c c ",
"c t c c t c c c c v F H r r r o.;.-.;.;.;.s 1 1 1 1 1 1 ;.-.;.-.;.;.;.;.;.< < < < < < ;.;.-.;.;.O.e e P F J t c x c c c c c c c ",
"@ @ @ @ @ O @ O @ @ q 8 u g g y q ; q =.=.*.%.%.%.%.%.x.x.x.x.x.x.x.x.x.x.%.%.%.*.%.%.=.=.r r r u F F h 0 9 @ O @ O O @ @ @ @ O ",
"T t t t t t t T T T 8 q y g g u q q q =.=.%.%.%.%.%.%.x.x.x.x.x.x.x.x.x.x.%.%.*.*.%.%.=.=.r r r u H F F w 9 T T T T T T T T T T ",
"n n T n T n n n n n n n O w w g M M M B M q = = % % % : = # # = : & - - % % . * . . * M z N N N g ; ; n n n n n n n n n n n n n ",
"n n n n n n n n n n n n O w w g N f f N N q = % % = : % % % = # # & # + : % % % % & & N h g h f f q 8 n n n n n n n n n n n n n ",
"n n n n n n n n n n n n O w w g f N N N N q = # . % = = % = # = # - # + % - % & = & % N h f g g d 8 q n n n n n n T n n n n n n ",
"v v v v v n n n n n n n O t c x 8 8 8 f M q % . ,.<.,.<.,.,.<.<.<.<.1.,.<.<.,.<.+ % % M M 8 8 8 v n b n n n n n n n n n n v v v ",
"v v v v v v v v v v v v O t c r w 9 8 f M q % % ,.<.<.<.<.<.<.<.<.<.<.<.<.<.<.<.& & % g f 8 8 8 v v v v v v v v v v v v v v v v ",
"v v v v v v v v v v v v o t c c c v v = & 6.5.5.]..Xe.}.t.}.{.t.].{.}.e.].|.r.}.3.2.2.- # v v v v v v v v v v v v v v v v t v v ",
"c c c c c c c c c c v v @ t c c c v v % + 6.5.5.|.oX[.}.[.|..X}.[.}.{.|.|.}.[.].oX2.2.- - v v v v v v v v v v v c c c c c c c x ",
"c c c c c c c c c c c c o t c c c v v % % 6.5.6.}.e.[.{..X|.].r.{.{.[.e.|.|.|.OXe.2.2.& & c c c c c c c c c c c c c c c c c c c ",
"c c c c c c c c c c c c @ t c c c v v 4.5..X{.}.}.[.{.e.OX}.}.}.{.}.r.}.t.].].e.}.w.{.1.1.c c c c c c c c c c c c c c c t c c c ",
"c c c c c c c c c c c c O t v l = - = 1.5..Xr.oXr.w.].}.r.]..X].].oXr..XoXw.[.}.{. Xe.2.1.+ - & c c c c c c c c c c c x x x c c ",
"t t t t t t t t t t t t O t c l % = - 4.5.oXoX].].}.].{.}.t.r.oX].{.{.}.}.[.6.].[.oX{.1.1.+ + @ t t t t t t t t t t t t t t t t ",
"o o O o o o o o o T o o o t c l # # % 5.5.{.{.}..Xt.[.].t.e.oX Xr.}.{.t.e.}.|.}..X{..X1.1.+ + # o o O O o o o O O o O o   O O O ",
"r c c c v T T T T T T T o t c l - % = 1.5.oX.XoXr..XoX].oX|.}.].r.}.[.}.}.|.}.|.{.{. X1.5.@ - & T T A T T T T A T T T T T T T t ",
"t c c c v v v n n n n n @ t c l & + # 1.5..X X}.oXt. Xt. Xw. X{.r..X].].}.}.}.t.[.t.[.1.1.+ + @ n n n n n n n T n n n n n n n t ",
"t c c c c v v n n n A S O t v v Z ,X1X5.5. X Xe.oX X.X[.oX XoX.X{.}.OX.X{.|.r.].].{.oX1.1.4X2X+ n n n n n n n n n n n n n n n t ",
"t c c c c v n n n n t t @ t c t 3 -X1X5.5.+X+X+X6X6X6X6X6X6X6X6X6X6X5X6X6X6X6X6X@X@X@X>.>.<X,X$ n n n n n n n n n n n n n n n t ",
"t c c c c v n n n n t t O t c t & Q.Q.- - $X+X+X6X6X6X6X6X6X6X6X6X6X6X6X6X6X6X6X@X@X@X5 ; <X,X- n n n n n n n v v v v v n n n t ",
"t c c c c v n n n n t x O t x 7 - n b - : $X+X+X6X6X6X6X6X6X6X6X6X6X6X6X6X6X6X6X@X@X@X- & - - - c c v v v v v v v v v v v T n t ",
"t c c c v v v n n n A T O & & Y.3X5X5X+ % - : - s.d.d.l.k.k.k.k.k.k.l.l.l.d.h.f.= : : = > *X1X,XY.; - v v v v v v v v v v v c t ",
"t c c c v v v n n n A t O $ @ Y.:X<X:X# # - - - s.d.d.j.k.k.k.k.k.k.k.l.l.d.f.f.: : : - = <X2X1XY.- - c c c c c c c c c v v v t ",
"t v c c v v v n n n n n O - 3 X.q.q._.z.S 6 a a a.s.s.s.s.s.h.k.k.k.h.h.h.s.s.s.~ ~ ~ Z C  .{ [ ^ # # c c c c c c c c c c c c t ",
"t c c c v v v n n n n n O $ $  . . . .5X4X| } } 3 & 2 u.i.i.a.k.l.l.p.p.p.= = = } } ] 5X5X . . .^ - - c c c c c c c c c c c c t ",
"t c c c v v v n n n n n O $ 3  .8.8.8.4X5X| } } 3 & > u.i.i.a.k.k.l.p.p.p.= = = ] ] ] 5X3X .8.8./ - - c c x c c c c c c c c c t ",
"t c c c v v v n n n n n @ $ $ Q Q ! .. . .2X<X2X3 > 2 u.p.p.p.s.s.s.i.i.p.: = = 2X4X5X7.[ 8.) ) E - # t t t t t t t t t t r t t ",
"t c c c v v v n n n n n O $ $ Q Q .... . .2X<X<X7.7.9.j j j j y.u.u.* j > 0.0.0.;X;X>X.. .8.! ) E + = O O O O O O O O O O O O O ",
"t c c c v v v n n n n n O $ $ W Q .... . .2X<X1X7.7.0., 5 k k y.y.y.j k 5 0.0.0.;X;X;X . .8.) ) E - + o c c c v n n n n n n n t ",
"t c c c v v T n n n n n O   @ @ 3 3 2 ` ' 8.7.8.6 6 6 @ @ @ @ O O + O   @ 6 5 k 9.9.9._ ` , > > @ O     c c c c v n n n n n n t ",
"t c c c v v v n n n n n o   @ @ 3 3 - ` ` 9.7.8.a 4 4 @ @ O @ @ @ @ @ e @ 6 6 6 9.7.9.` ` ; 3 2 @ @     c A c c v n n n n n n t ",
"t c c c v v v n n n n n O   @ @ 3 - & _ _ ( ( ( $ $ $ @ @ @ @ @ @ @ @ @ @ $ $ $ } } } ` ` @ @ @ @ @   O c A c c v v n n n n n t ",
"t c c c v v n n n n n n O t o O O O O 3 3 3 3 3 O O o O O o O o O O @ @ @ O o O 5 5 ; 3 ; O O O 4 O t O c A c c v v n n n n n t ",
"t c c c A A n n n n n n O t v v X @ o 3 3 3 3 3 O o O O O O o O O o o O O O X O 4 3 ; > ; O O 7 v v t O c c c c v v n n n n n t ",
"t c c c c v n n n n n n O t v v v v c @ @ O o O o O O O o O O O o O o o o O @ O O O O O O v v v v v t O t c c c v v n n n n n t ",
"t c c c c v v n n n n n O t v c c c c c c c c $ o o   O O O O o O o O o o o O   $ v c c x x c c c v t O c c c c v v n n n n n t ",
"t c c c c v v n n b n e O t c c c c c c c c c c x c c c c 6 @ o o @ 6 c c x c c c c c c c c t t c c t O c c c c v v n n n n n t ",
"t c c c c v v n n b t a O t c c c c c c c c c c c c c c c c c c c c c x x x c c c t t t t t t t c c t O c c c v v v n n n n n t ",
"t c c c v v v n n n 0 n O t c c x c c c c c c c c c c c c c c c c c A x c c c c t t t t t t t c c c t O c c c v v v n n n n n t ",
"O O O O O O O O O O O O O O O O O O O O O @ O O O O O O O O O O O O O O O O O @ O O @ O O O O O O O O O c c c v v v n n n n n t "
};
