/* XPM */
static char *result[] = {
/* columns rows colors chars-per-pixel */
"64 64 18 1 ",
"  c #262020",
". c #272222",
"X c #282222",
"o c #292525",
"O c #2A2424",
"+ c #2C2626",
"@ c #2D2727",
"# c #2C2828",
"$ c #403A3A",
"% c #433D3D",
"& c #4D4545",
"* c #4D4646",
"= c #514A4A",
"- c #524A4A",
"; c #585252",
": c #5B5555",
"> c #7D7171",
", c #807575",
/* pixels */
"%%%%%%%%%%%>%%%%%%%%%%%%%%%%%%%%%%%%%%O%%%%%%%%%%%%O&&&===;;;;;%",
"%;;;;;;;;;;;;;;;;;;;;;;;;;;;;;;;;;;;;%O&%%====;;;;%O&&&===;;;;;%",
"%;;;;;;;;;;;;;;;;;;;;;;;;;;;;;;;;;;;;%O&&&&==;;;;;%O&&&===;;;;;%",
"%;;;;;;;;;;;;;;;;;;;;;;;;;;;;;;;;;;;;%O&&&&==;;;;;%O&&&===;;;;;%",
"%=;;;;;;;;;;;;;;;;;;==;;;;;;;;;;;;;;;%O&&&&==;;;;;%O&&&===;;;;;%",
"%====================================%o&&&&==;;;;;%O&&&&==;;;;;%",
"%==========================>=========%O&&&&==;;;;;%O&&&&==;;;;;%",
"%====================================%O&&&&==;;;;$%O&&&>=;;;;;;%",
"%&&&&&&&&&&&&&&&&&&&%&&&&&&&&&&&&&&&&%O&&&&==;;;;;%O&&&>=;;;;;;%",
"%&&&&&&&&&&&&&&&%%%%%&&&&&&&&&&&&&&&&%O&&&&>=;;;;;%O&&&&=;;;;;;%",
"%&&&&&&&&&&&&&&&%%%%%%&&&&&&&&&&&&&&&%O&&&>>=;;;;;%O&&&&=;;;;;;%",
"%&&&&&&&&&&&&&&%%%%%%%&,%%:::&$&&&&&&%O&&&>===;;;;%O&&&==::::::%",
"++++++++++++@@@@@@@@@@@@@#@@@@@@@#@@@@O&&&&===;;;;%@@@@###@@@@@@",
"%%%%%%%%%%%%%%%%%%%%%%%%%#%%%%%%%%%%%%O&&&===;;;;;%O%%%%%%%%%%%%",
";;;;;;;;;;;;;;;;;;;$$;;%%#&&&&===;;;;%O&&&===;;;;;%O%;;;;;;;;;;;",
";;;$$$;;;;;;$$;;;;;;;;;,,@&&&&===;;;;%O&&&===;;;;;%O%,;;;;;;;;;;",
";;;;$$;;;;;;$;;;;;;;;;;;;@&&&&===;;;;%O&&&===;;;;;%O;;;;;;;;;;;;",
"==;;;;;;;;;;;==;;;;;;;;;;@&&&&===;;;>%O&&&===;;;;;%o;;;;;;;;;===",
"================$========@&&&&===;;;;%O&&&&==;;;;;%o============",
"=========================@&&&&===;;;;%O&&&&==;;;;;%o============",
"=========================@&&&&===;;;;%O&&&&===;;;;%o============",
"&&&&&&&&&&&&&&&&&&&&&&&&&@&&&&===;;;;%O&&&&===;;;;%o&&&&&&&&&&&&",
"&&&&&&&&&&&&&&&&&&&&&&&&&@&&&&===;;;;%O&&&===;;;;;%o&&&&&&&&&&&&",
"&&&&&&&&&&&&&&&&&&&&&&&&&@&&&&===;;;;%O&&&===;;;;;%o$&&&&&&&&&&&",
"&%&&%&&&====%%==&&&&&%&%&@&&&&===;;;;%O&&&----====%o$&&&&&&&&&&&",
"@@@@@@@@@#@@@@@@@@@@@@@@@@&&$$===;;;;%@@@@@@@@@@@@@@@@@@@@@@@@@@",
",%%%%%%,,,,,O%,,,,,,,%%%%@&&&&===;;;;%O,,,,,,,,,,,,,,,,,,,,,,,,,",
";;,;,;;;;;;;O%&&&===,,;,,@&&&&===;;;;%O;;;;;;;>;;;;;;;;;;;;;;;;;",
";;;;;;;;;;;;O%&&&===;;;;;@&&&&===;;;;%O;;;;;;;;;;;;;;;;;;;;;;;;;",
";;;;;;;;;;;;O%&&&===;;;;;@&&&&===;;;;%O;;;;;;;;;;;;;;;;;;>;;;;;;",
"=====;;;;;;;O%&&&===;;;;;@&&&&===;;;;%o==========;;;;;;;;;;;;===",
"============o%&&*===;;;;;@&&&&===;;;;%o=========================",
"============o%&&*===;;;;;@&&&&===;;;;%o======================$==",
"&&&&&&&&&&==o%&&&===;;;;;@&&&&===;;;;%o=&&&=============&&&&&&&&",
"&&&&&&&&&&&&o%&&&==>;;;;;@&&&&===;;;;%o&&&&&&&&&&&&&&&&&&&&&&&&&",
"&&&&&&&&&&&&o%&&&===;$;;;@&&&&===;;;;%o&&&&&&&&&&&&&&&&&&&&&$&&&",
"&&&&&&&&&&&&O%&&&=$=;$;;;@&&&&===;;;;%o&&&&&&&&&&&&&&&&&&&&&&&&&",
"%%%%%%%%%%%%O%&&&===;;;;;@%%%%%%%%%%%%o%%%%%%%%%%%%%%%%%%%%%%%%%",
"XXXXXXXXX>XX %&&&===;;;;;@...........OOO.......................+",
"%&&&=,,,,,,,O%&&&===;;;;%@,,,,,,;;;;;;;;;;;;,,,,,,,,,,,>,,,,,,,%",
"%&&&===;;;;;O%&&&===;;;;;@;;;;;;;;;;;$;;;;;;;;;;;;;;;;;>;;;;;;;%",
"%&&&&==;;;,,O%&&&===;;;;;@;;;;;;>;;;;;;;;;;;;;;;;;;;;;;;;;;;;;;%",
"%&&&&=;;;;%%O%&&&===;;;;;@;;;;;;;;;;;;;;$;;;;;;;;;;;;;;;;;;;;;;%",
"%&&&&=;;;;%%O%&&&==>;;;;;@;;;;;;;;;;;;;;;;;;;;;;;;;;;;;=====;;;%",
"%&&&&=;;;;%%O%&&&===;;;;;#===================================>;%",
"%&&&===;;;,,O%&&&===;;;;;#=====================================%",
"%&&&===;;;,%O%&&&&==;;;;;#==&&&$&&&&&&&&&&&========&&&&&&&&&===%",
"%&&&===;;;;;O%&&&&==;;;%%@&%&&&&&&&&&&&&&&&&&&&&&&&&&&&&&&&&&&&%",
"%&&&===;;;;;O%&&&&==;;;%%@%%&&&&&&&&&&&&&&&&&&&&&&&&&&&&&&&&&&&%",
"%&&&===;;;;;O%&&&&==,,%%%@%&&&&&&&&&&&&&&&&&&&&&&&&&&&&&&&&&&&&%",
"%&&&===;;;;;O%%%%%%%%%%%%@%%%%%%%%%%%%%%%%%%%%%%%%%%%%%%%%%%%%%%",
"%&&&===;;;;;OOOOOOOOOOOOOOOOOoOOOOOOOOOOOOOOOOOOOOOOOOOOOOOOOOOO",
"%&&&===;;;;;O%%%%%%%%;;;;;;;;;;;;;%%%;;;,,;;;;;;;>%O&&&=;;;;;;;%",
"%&&&==>;;;;;O%;;%%;;;;;;;;;;;;;;;;;%;;;;;;;;;;;;;;%O&&&&=;;;;;;%",
"%&&&===;;;;;O%;;;;;;;;;;;;;;;;;;;;;,;;;;;;;;;;;;;;%O&>&&=;;;;;;%",
"%&&&===;;;;;O%;;;;;;;;;;;;;;;;;;;;;;;;;;;;;;;;;;;;%O&>&&==;;;;;%",
"%&&&==;;;;;;O%====================;;;===========>=%O&>&&==;;;;;%",
"%&&&>>;;;;;;O%=================================>==%O&&&&==;;;;;%",
"%&&&&=;;;;;;O%====================================%o$&&&==;;;;;%",
"%&&&&==;;;;;O%=&&&&&&&&&&&&========&&&&&&=&&&&&&&=%O&&&&==;;;;;%",
"%&&&&==;;;;$O%&&&&&&&&&&&&&&&&&&&&&&&&&&&&&&&&%%&&%O&&&&==;;;;;%",
"%&&&&==;;;$$O%&&&&&&&&&&&&&&&&&&&&&&&&&&&%%%%%%%&&%O&&&===;;;;;%",
"%&&&===;;;$;O%&&&&&&&&&&&&&&&&&&&&>&&&&&%%%%%%%&&&%O&&&===;;;;;%",
"ooooooOOOOOOOooooooooooooooooooooooooooooooooooooooO&&&===;;;;;%"
};
